<?xml version="1.0" encoding="UTF-8"?>
<svg version="1.1" xmlns="http://www.w3.org/2000/svg" width="512" height="512">
<path d="M0 0 C1.19496094 0.42410156 2.38992188 0.84820313 3.62109375 1.28515625 C16.79838404 6.46658803 27.20790262 14.94489459 37.7265625 24.15625 C40.44707147 26.53610667 43.22521395 28.82205406 46.0625 31.0625 C49.94585851 34.1296518 53.73334319 37.29193213 57.5 40.5 C62.07417234 44.39504337 66.71160285 48.1877371 71.421875 51.91796875 C74.40967168 54.33084092 77.33056197 56.81796079 80.25 59.3125 C84.70638944 63.11743964 89.24168804 66.78802479 93.875 70.375 C99.55846261 74.78007931 104.99233412 79.41914987 110.39404297 84.16357422 C114.496699 87.74822349 118.68794001 91.17105075 123 94.5 C128.64688196 98.85944386 134.03555673 103.45700447 139.39453125 108.1640625 C143.49708641 111.74848957 147.6882113 115.17106786 152 118.5 C157.70651933 122.9077831 163.17527934 127.53998998 168.59228516 132.2980957 C172.27897217 135.531549 176.02731537 138.64477031 179.875 141.6875 C197.16829008 155.80394864 208.89452527 176.85287126 211.23014259 199.2022171 C211.58491183 204.73805805 211.54566147 210.27575271 211.51757812 215.8203125 C211.52301351 217.64891106 211.53014403 219.47750524 211.53881836 221.30609131 C211.55688643 226.22352818 211.55005323 231.14062533 211.53730202 236.05806732 C211.5270879 241.23419528 211.53659082 246.41029653 211.54284668 251.58642578 C211.5500988 260.27446651 211.54059962 268.96237069 211.52148438 277.65039062 C211.4997204 287.65706134 211.5067735 297.66340591 211.52879 307.67006874 C211.54701372 316.30244526 211.5494684 324.93472431 211.53903532 333.56711388 C211.53283855 338.70497346 211.53185854 343.84268036 211.54518127 348.98052979 C211.55684127 353.81367305 211.5485312 358.64640086 211.52560425 363.47949982 C211.52037084 365.24014856 211.52173725 367.00083304 211.53065491 368.76146698 C211.63321514 391.08989566 205.56670638 410.11661431 192 428 C191.49726563 428.67675781 190.99453125 429.35351562 190.4765625 430.05078125 C177.55347741 446.29801251 156.39301445 457.06908364 136 460 C131.45743288 460.27682243 126.92703188 460.27875397 122.37704468 460.26742554 C121.01863053 460.27116856 119.66021854 460.27577266 118.30180991 460.28115618 C114.59274883 460.29332129 110.88377838 460.29313343 107.17470193 460.29076743 C103.16497696 460.29035761 99.15528041 460.30141421 95.14556885 460.31088257 C87.29821205 460.32745834 79.4508853 460.33299058 71.60351245 460.33410732 C65.22039786 460.33505951 58.83729314 460.33917832 52.45418167 460.34550858 C34.33292438 460.36311236 16.21169072 460.3723489 -1.90957518 460.37084763 C-2.88542611 460.37076772 -3.86127705 460.3706878 -4.86669922 460.37060547 C-5.84375011 460.37052371 -6.820801 460.37044195 -7.8274595 460.37035771 C-23.65257894 460.36954526 -39.4776031 460.38867481 -55.30269499 460.4168822 C-71.57527418 460.44565691 -87.84780697 460.45941995 -104.12041223 460.45769465 C-113.24675483 460.45703229 -122.37299757 460.46245686 -131.49931717 460.48405075 C-139.27130275 460.50232311 -147.0431432 460.5065605 -154.81514104 460.4930319 C-158.77466532 460.48653238 -162.73391167 460.4862747 -166.69340897 460.5037384 C-197.27709931 460.63008866 -197.27709931 460.63008866 -210 456 C-210.61745692 455.77603507 -211.23491385 455.55207014 -211.87108159 455.32131839 C-221.28620354 451.86425075 -229.08663167 447.03126991 -237 441 C-237.72703125 440.45859375 -238.4540625 439.9171875 -239.203125 439.359375 C-254.46958329 427.07173784 -263.65935145 408.76043017 -268 390 C-268.17622485 389.27075223 -268.3524497 388.54150446 -268.5340147 387.79015827 C-269.11574018 384.30698795 -269.14809021 380.88922282 -269.14717102 377.3691864 C-269.15084771 376.60849549 -269.1545244 375.84780457 -269.1583125 375.06406242 C-269.16931208 372.51885697 -269.17318693 369.97369241 -269.17700195 367.4284668 C-269.18326971 365.60149507 -269.18991679 363.77452462 -269.19691467 361.94755554 C-269.21793077 355.94811893 -269.22831888 349.94868215 -269.23828125 343.94921875 C-269.24233056 341.87894999 -269.24644753 339.80868135 -269.25063133 337.73841286 C-269.26968233 328.00474661 -269.2839102 318.27108792 -269.2922433 308.53740662 C-269.30199766 297.33043693 -269.32827043 286.1236657 -269.36874419 274.91676587 C-269.399003 266.2379289 -269.41372164 257.55914847 -269.41702431 248.88025981 C-269.41936482 243.70531291 -269.42819354 238.53057803 -269.45348549 233.3556881 C-269.47694079 228.47759887 -269.48093 223.59985859 -269.47072411 218.72172737 C-269.47023275 216.94333097 -269.47643314 215.16491636 -269.49028015 213.38657379 C-269.68117788 187.38883653 -261.0099414 164.50166707 -242.8125 145.734375 C-239.33347469 142.35198928 -235.69720535 139.28180436 -231.88671875 136.28125 C-228.67062795 133.7397114 -225.55353304 131.0997374 -222.4375 128.4375 C-217.88447842 124.56350778 -213.26500551 120.79373824 -208.578125 117.08203125 C-205.59032832 114.66915908 -202.66943803 112.18203921 -199.75 109.6875 C-195.29361056 105.88256036 -190.75831196 102.21197521 -186.125 98.625 C-180.44153739 94.21992069 -175.00766588 89.58085013 -169.60595703 84.83642578 C-164.95274676 80.77073598 -160.15950802 76.93916872 -155.26953125 73.1640625 C-150.88161331 69.75233305 -146.67551452 66.16756533 -142.5 62.5 C-137.77335447 58.34834846 -132.97979864 54.3445114 -128 50.5 C-122.26179038 46.06940565 -116.77640025 41.39904913 -111.32202148 36.625 C-107.20008616 33.02267248 -103.01868602 29.53121028 -98.70703125 26.15625 C-96.548077 24.4365635 -94.43205755 22.68713031 -92.32421875 20.90625 C-66.32128038 -0.93634478 -33.31441886 -11.84266717 0 0 Z " fill="#FBB6B2" transform="translate(285,28)"/>
<path d="M0 0 C0.78822647 -0.00511093 1.57645294 -0.01022186 2.38856506 -0.01548767 C4.97250144 -0.02928946 7.55616804 -0.02843319 10.14013672 -0.02612305 C11.9560455 -0.03001683 13.77195338 -0.03435289 15.58786011 -0.03910828 C19.38884434 -0.04655157 23.18973567 -0.04629419 26.99072266 -0.04101562 C31.82526944 -0.03524176 36.6594305 -0.0521107 41.49391365 -0.0753603 C45.24494596 -0.09020817 48.99588793 -0.09095412 52.74694443 -0.08785057 C54.52725866 -0.08835885 56.30757861 -0.09350227 58.08786392 -0.10366249 C81.90075895 -0.22283948 101.12193903 5.283075 118.88232422 21.9621582 C135.07746556 38.69799583 139.17716197 58.15801516 139.12841797 80.51293945 C139.13299097 82.36557708 139.13829982 84.21821301 139.14430237 86.07084656 C139.15319121 89.9379265 139.1508597 93.80479947 139.14086914 97.671875 C139.12939791 102.58704235 139.14958448 107.50148924 139.17878628 112.41656208 C139.19728142 116.23885005 139.19682932 120.06096968 139.19114876 123.88329124 C139.1909971 125.69348344 139.19691058 127.50368821 139.20944023 129.31383705 C139.29398244 143.52892778 137.78271966 156.61209296 131.13232422 169.4621582 C130.79716797 170.12014404 130.46201172 170.77812988 130.11669922 171.45605469 C126.37296422 178.42403077 121.35202705 183.81860036 115.69482422 189.2746582 C115.06189453 189.93852539 114.42896484 190.60239258 113.77685547 191.28637695 C109.73855137 195.25336443 105.11867973 197.8741134 100.13232422 200.4621582 C99.52622314 200.78345703 98.92012207 201.10475586 98.2956543 201.43579102 C84.95182784 208.00830098 71.69927999 208.88202831 57.12841797 208.8059082 C55.2776723 208.80861185 53.42692802 208.81250147 51.57618713 208.81750488 C47.72277116 208.82335748 43.86972942 208.81497439 40.01635742 208.79614258 C35.1157198 208.77333945 30.21595817 208.78651191 25.31535244 208.81043243 C21.50166912 208.8249923 17.6881883 208.82023842 13.87449837 208.80992126 C12.06907099 208.80728285 10.26362426 208.81042011 8.45821953 208.81983948 C-11.73271023 208.90211813 -29.87096818 204.08421237 -45.30517578 190.2746582 C-46.42666016 189.29239258 -46.42666016 189.29239258 -47.57080078 188.2902832 C-59.7983972 176.89449606 -68.9493298 159.12960311 -69.57260132 142.17990112 C-69.59029738 140.71531697 -69.59748734 139.25057865 -69.59570312 137.78588867 C-69.60577896 136.57428825 -69.60577896 136.57428825 -69.61605835 135.33821106 C-69.63492762 132.68935855 -69.63895743 130.04076109 -69.64111328 127.3918457 C-69.64755071 125.5310964 -69.65427975 123.67034808 -69.6612854 121.80960083 C-69.67323188 117.91446592 -69.67696912 114.0194195 -69.67578125 110.12426758 C-69.67557863 105.16856445 -69.70283334 100.21343844 -69.73732567 95.25787163 C-69.7597285 91.41418937 -69.76361466 87.57064283 -69.7625618 83.72690201 C-69.7648995 81.90191797 -69.77361788 80.07692913 -69.78922653 78.25201035 C-69.94650574 57.95800189 -65.19463993 39.79817695 -51.30517578 24.2746582 C-50.65033203 23.52700195 -49.99548828 22.7793457 -49.32080078 22.0090332 C-36.89210176 8.67312988 -18.32555795 -0.06259016 0 0 Z " fill="#010101" transform="translate(221.30517578125,199.725341796875)"/>
<path d="M0 0 C1.19496094 0.42410156 2.38992188 0.84820313 3.62109375 1.28515625 C16.79838404 6.46658803 27.20790262 14.94489459 37.7265625 24.15625 C40.44707147 26.53610667 43.22521395 28.82205406 46.0625 31.0625 C49.94585851 34.1296518 53.73334319 37.29193213 57.5 40.5 C62.07417234 44.39504337 66.71160285 48.1877371 71.421875 51.91796875 C74.40967168 54.33084092 77.33056197 56.81796079 80.25 59.3125 C84.70638944 63.11743964 89.24168804 66.78802479 93.875 70.375 C99.55846261 74.78007931 104.99233412 79.41914987 110.39404297 84.16357422 C114.496699 87.74822349 118.68794001 91.17105075 123 94.5 C128.64688196 98.85944386 134.03555673 103.45700447 139.39453125 108.1640625 C143.49708641 111.74848957 147.6882113 115.17106786 152 118.5 C157.70651933 122.9077831 163.17527934 127.53998998 168.59228516 132.2980957 C172.27897217 135.531549 176.02731537 138.64477031 179.875 141.6875 C197.16829008 155.80394864 208.89452527 176.85287126 211.23014259 199.2022171 C211.58491183 204.73805805 211.54566147 210.27575271 211.51757812 215.8203125 C211.52301351 217.64891106 211.53014403 219.47750524 211.53881836 221.30609131 C211.55688643 226.22352818 211.55005323 231.14062533 211.53730202 236.05806732 C211.5270879 241.23419528 211.53659082 246.41029653 211.54284668 251.58642578 C211.5500988 260.27446651 211.54059962 268.96237069 211.52148438 277.65039062 C211.4997204 287.65706134 211.5067735 297.66340591 211.52879 307.67006874 C211.54701372 316.30244526 211.5494684 324.93472431 211.53903532 333.56711388 C211.53283855 338.70497346 211.53185854 343.84268036 211.54518127 348.98052979 C211.55684127 353.81367305 211.5485312 358.64640086 211.52560425 363.47949982 C211.52037084 365.24014856 211.52173725 367.00083304 211.53065491 368.76146698 C211.63321514 391.08989566 205.56670638 410.11661431 192 428 C191.49726563 428.67675781 190.99453125 429.35351562 190.4765625 430.05078125 C177.55347741 446.29801251 156.39301445 457.06908364 136 460 C131.45743288 460.27682243 126.92703188 460.27875397 122.37704468 460.26742554 C121.01863053 460.27116856 119.66021854 460.27577266 118.30180991 460.28115618 C114.59274883 460.29332129 110.88377838 460.29313343 107.17470193 460.29076743 C103.16497696 460.29035761 99.15528041 460.30141421 95.14556885 460.31088257 C87.29821205 460.32745834 79.4508853 460.33299058 71.60351245 460.33410732 C65.22039786 460.33505951 58.83729314 460.33917832 52.45418167 460.34550858 C34.33292438 460.36311236 16.21169072 460.3723489 -1.90957518 460.37084763 C-2.88542611 460.37076772 -3.86127705 460.3706878 -4.86669922 460.37060547 C-5.84375011 460.37052371 -6.820801 460.37044195 -7.8274595 460.37035771 C-23.65257894 460.36954526 -39.4776031 460.38867481 -55.30269499 460.4168822 C-71.57527418 460.44565691 -87.84780697 460.45941995 -104.12041223 460.45769465 C-113.24675483 460.45703229 -122.37299757 460.46245686 -131.49931717 460.48405075 C-139.27130275 460.50232311 -147.0431432 460.5065605 -154.81514104 460.4930319 C-158.77466532 460.48653238 -162.73391167 460.4862747 -166.69340897 460.5037384 C-197.27709931 460.63008866 -197.27709931 460.63008866 -210 456 C-210.61745692 455.77603507 -211.23491385 455.55207014 -211.87108159 455.32131839 C-221.28620354 451.86425075 -229.08663167 447.03126991 -237 441 C-237.72703125 440.45859375 -238.4540625 439.9171875 -239.203125 439.359375 C-254.46958329 427.07173784 -263.65935145 408.76043017 -268 390 C-268.17622485 389.27075223 -268.3524497 388.54150446 -268.5340147 387.79015827 C-269.11574018 384.30698795 -269.14809021 380.88922282 -269.14717102 377.3691864 C-269.15084771 376.60849549 -269.1545244 375.84780457 -269.1583125 375.06406242 C-269.16931208 372.51885697 -269.17318693 369.97369241 -269.17700195 367.4284668 C-269.18326971 365.60149507 -269.18991679 363.77452462 -269.19691467 361.94755554 C-269.21793077 355.94811893 -269.22831888 349.94868215 -269.23828125 343.94921875 C-269.24233056 341.87894999 -269.24644753 339.80868135 -269.25063133 337.73841286 C-269.26968233 328.00474661 -269.2839102 318.27108792 -269.2922433 308.53740662 C-269.30199766 297.33043693 -269.32827043 286.1236657 -269.36874419 274.91676587 C-269.399003 266.2379289 -269.41372164 257.55914847 -269.41702431 248.88025981 C-269.41936482 243.70531291 -269.42819354 238.53057803 -269.45348549 233.3556881 C-269.47694079 228.47759887 -269.48093 223.59985859 -269.47072411 218.72172737 C-269.47023275 216.94333097 -269.47643314 215.16491636 -269.49028015 213.38657379 C-269.68117788 187.38883653 -261.0099414 164.50166707 -242.8125 145.734375 C-239.33347469 142.35198928 -235.69720535 139.28180436 -231.88671875 136.28125 C-228.67062795 133.7397114 -225.55353304 131.0997374 -222.4375 128.4375 C-217.88447842 124.56350778 -213.26500551 120.79373824 -208.578125 117.08203125 C-205.59032832 114.66915908 -202.66943803 112.18203921 -199.75 109.6875 C-195.29361056 105.88256036 -190.75831196 102.21197521 -186.125 98.625 C-180.44153739 94.21992069 -175.00766588 89.58085013 -169.60595703 84.83642578 C-164.95274676 80.77073598 -160.15950802 76.93916872 -155.26953125 73.1640625 C-150.88161331 69.75233305 -146.67551452 66.16756533 -142.5 62.5 C-137.77335447 58.34834846 -132.97979864 54.3445114 -128 50.5 C-122.26179038 46.06940565 -116.77640025 41.39904913 -111.32202148 36.625 C-107.20008616 33.02267248 -103.01868602 29.53121028 -98.70703125 26.15625 C-96.548077 24.4365635 -94.43205755 22.68713031 -92.32421875 20.90625 C-66.32128038 -0.93634478 -33.31441886 -11.84266717 0 0 Z M-81.53564453 33.68457031 C-83.71108514 35.63876738 -85.97690257 37.47351291 -88.25 39.3125 C-92.966987 43.15622556 -97.6754232 47.01001486 -102.375 50.875 C-103.10726807 51.47715332 -103.83953613 52.07930664 -104.59399414 52.69970703 C-108.99216706 56.3239148 -113.35375063 59.98664967 -117.6875 63.6875 C-121.9978844 67.36683556 -126.39555193 70.90388012 -130.875 74.375 C-136.55824996 78.7803688 -141.99231635 83.41913426 -147.39404297 88.16357422 C-152.04725324 92.22926402 -156.84049198 96.06083128 -161.73046875 99.8359375 C-166.11838934 103.24766902 -170.32445147 106.83247026 -174.5 110.5 C-179.79982195 115.15435273 -185.21560792 119.58716517 -190.79418945 123.90185547 C-195.647513 127.67460705 -200.31418895 131.63769743 -204.96118164 135.66040039 C-208.43139649 138.66265538 -211.93575526 141.6089435 -215.5 144.5 C-216.37398437 145.21671875 -217.24796875 145.9334375 -218.1484375 146.671875 C-219.65580221 147.90254537 -221.16500332 149.13112467 -222.68847656 150.34179688 C-238.56316781 162.98259416 -249.37703046 178.64640391 -253 199 C-253.42582894 204.97699092 -253.42153079 210.93347175 -253.40405273 216.9230957 C-253.40976602 218.70346502 -253.41673396 220.48383069 -253.42485046 222.26419067 C-253.442693 227.06810649 -253.44163012 231.87183876 -253.43590808 236.67577767 C-253.43280269 240.70121086 -253.43892376 244.72660946 -253.44494683 248.7520377 C-253.45896178 258.25716611 -253.45745659 267.76220458 -253.44604492 277.26733398 C-253.434572 287.03876602 -253.44863248 296.80992331 -253.4754414 306.58131915 C-253.49767081 315.00212755 -253.50421936 323.42285018 -253.49836498 331.84368581 C-253.49501085 336.85918365 -253.49730683 341.87450554 -253.51461601 346.88997841 C-253.53019857 351.61060563 -253.52600554 356.33082926 -253.50731087 361.05144119 C-253.50365578 362.7721989 -253.50664215 364.49298728 -253.51719666 366.21371651 C-253.59510266 379.97844875 -251.86935955 392.75969543 -245.4375 405.1875 C-245.10234375 405.84548584 -244.7671875 406.50347168 -244.421875 407.18139648 C-240.67814 414.14937256 -235.65720283 419.54394216 -230 425 C-229.05060547 425.99580078 -229.05060547 425.99580078 -228.08203125 427.01171875 C-224.02522576 430.99688087 -219.39015043 433.60189007 -214.375 436.1875 C-213.45328003 436.66944824 -213.45328003 436.66944824 -212.51293945 437.16113281 C-201.46163714 442.57687301 -190.29711434 444.59777027 -178.07911682 444.50793457 C-176.73715748 444.51255736 -175.39520322 444.51891942 -174.05325931 444.52684355 C-170.40819655 444.5433716 -166.76355861 444.53536705 -163.11849535 444.52289867 C-159.17087802 444.51378178 -155.22332958 444.5278506 -151.27572632 444.53881836 C-143.5588833 444.55653838 -135.84219653 444.55279267 -128.12534756 444.5411678 C-121.84910015 444.53210731 -115.5728963 444.53092075 -109.29664421 444.53526306 C-107.95299716 444.53618246 -107.95299716 444.53618246 -106.58220572 444.53712043 C-104.76204816 444.53839943 -102.9418906 444.53969629 -101.12173306 444.5410108 C-84.08227307 444.55239768 -67.04289938 444.539333 -50.00345355 444.51780933 C-35.40810226 444.49994314 -20.81287828 444.50304219 -6.2175293 444.52148438 C10.7624507 444.54292989 27.74235519 444.551296 44.72234684 444.53903532 C46.5358407 444.53776123 48.34933457 444.53650374 50.16282845 444.53526306 C51.05492377 444.53464596 51.9470191 444.53402886 52.86614762 444.53339306 C59.12854627 444.52995095 65.39089671 444.53574388 71.65328789 444.54518127 C79.29420161 444.55644378 86.93495114 444.55327252 94.57584625 444.5320583 C98.46843082 444.52160425 102.36074245 444.51732846 106.25332451 444.53065491 C109.826907 444.54270344 113.39996738 444.53581518 116.97350348 444.5147447 C118.85659904 444.50826338 120.73973179 444.52110251 122.62278742 444.53497362 C140.54890193 444.37284638 157.56409476 437.9720712 171 426 C171.66257812 425.43023437 172.32515625 424.86046875 173.0078125 424.2734375 C185.68849865 412.58731497 194.38157798 395.18211442 195.28179741 377.93742752 C195.43151028 373.2797892 195.41767991 368.62286428 195.40405273 363.96337891 C195.4097674 362.18286209 195.41673586 360.40234893 195.42485046 358.62184143 C195.44267637 353.82211681 195.44163347 349.02257606 195.43590808 344.22282839 C195.4328007 340.19983037 195.43892584 336.17686688 195.44494683 332.1538738 C195.4589559 322.65496171 195.45746112 313.15613963 195.44604492 303.65722656 C195.43456858 293.89315811 195.44863958 284.1293645 195.4754414 274.36533225 C195.49767023 265.94874992 195.50421961 257.53225342 195.49836498 249.11564386 C195.49501119 244.10351433 195.49730466 239.09156087 195.51461601 234.07945633 C195.53019803 229.36291961 195.52600614 224.64678684 195.50731087 219.93026543 C195.50365585 218.21111943 195.50664196 216.49194273 195.51719666 214.77282524 C195.6447355 192.26047436 188.87952514 173.32849981 173 157 C170.37825859 154.64745525 167.6952662 152.44355741 164.91796875 150.27734375 C161.70236258 147.76770734 158.60041966 145.14921704 155.5 142.5 C150.65305846 138.37871241 145.7515035 134.3320094 140.81640625 130.31640625 C137.66214808 127.72212734 134.5479702 125.08393735 131.4375 122.4375 C126.8835757 118.56453634 122.26504947 114.79377305 117.578125 111.08203125 C114.59032832 108.66915908 111.66943803 106.18203921 108.75 103.6875 C104.29361056 99.88256036 99.75831196 96.21197521 95.125 92.625 C89.44153739 88.21992069 84.00766588 83.58085013 78.60595703 78.83642578 C74.50329827 75.25177413 70.31203628 71.82898453 66 68.5 C60.26391492 64.07104605 54.77908901 59.40392816 49.32861328 54.62939453 C45.14778521 50.97321939 40.88666548 47.45630918 36.51953125 44.0234375 C34.04987713 42.04005636 31.64198658 39.99995809 29.23901367 37.93701172 C9.93877516 21.39395014 -9.78376321 9.97352458 -35.80371094 11.78125 C-53.64456888 13.55819628 -68.47714054 21.78746977 -81.53564453 33.68457031 Z " fill="#050404" transform="translate(285,28)"/>
<path d="M0 0 C26.4 0 52.8 0 80 0 C80 38.19354839 80 38.19354839 74.5625 48.25 C71.61826716 53.7696417 69.11268821 59.27391389 66.75 65.0625 C63.61358104 70.32720326 60.62671321 73.27705141 54.59375 74.9375 C51.44694766 75.55151021 48.30322107 76.07606188 45.13598633 76.56860352 C42.70479875 77.0596206 40.42094869 77.81548904 38.05859375 78.5703125 C30.56332235 80.6724242 23.01787978 80.324343 15.3125 80.1875 C13.82097717 80.17241445 12.32943945 80.15873294 10.83789062 80.14648438 C7.22494512 80.11381157 3.61257139 80.06224719 0 80 C-0.07347656 78.67935547 -0.07347656 78.67935547 -0.1484375 77.33203125 C-0.22320312 76.17058594 -0.29796875 75.00914062 -0.375 73.8125 C-0.44460938 72.66394531 -0.51421875 71.51539063 -0.5859375 70.33203125 C-0.82187509 67.09788438 -0.82187509 67.09788438 -2.02246094 64.72485352 C-3.56634274 60.42134083 -3.28460055 56.1262047 -3.265625 51.58984375 C-3.26753845 50.58538712 -3.2694519 49.58093048 -3.27142334 48.54603577 C-3.27278179 46.42709095 -3.26910913 44.30813772 -3.26074219 42.18920898 C-3.25002679 38.94561095 -3.26065491 35.70256535 -3.2734375 32.45898438 C-3.27211606 30.39843628 -3.269554 28.33788852 -3.265625 26.27734375 C-3.26967346 25.30748032 -3.27372192 24.33761688 -3.27789307 23.33836365 C-3.27158875 22.43384964 -3.26528442 21.52933563 -3.25878906 20.59741211 C-3.25719788 19.80419052 -3.25560669 19.01096893 -3.25396729 18.19371033 C-3 16 -3 16 -1 12 C-0.67 8.04 -0.34 4.08 0 0 Z " fill="#F6EEEA" transform="translate(264,312)"/>
<path d="M0 0 C0 26.4 0 52.8 0 80 C-26.4 80 -52.8 80 -80 80 C-80 32.95645604 -80 32.95645604 -65.03515625 16.90625 C-45.40228373 -1.48308165 -27.69772059 0 0 0 Z " fill="#FBE1D6" transform="translate(248,216)"/>
<path d="M0 0 C42.52061856 0 42.52061856 0 58 11 C58.62132812 11.43828125 59.24265625 11.8765625 59.8828125 12.328125 C70.954768 20.96722929 76.6867628 33.74705119 80 47 C80 57.89 80 68.78 80 80 C53.6 80 27.2 80 0 80 C0 53.6 0 27.2 0 0 Z " fill="#FBE0D3" transform="translate(264,216)"/>
<path d="M0 0 C26.4 0 52.8 0 80 0 C80 26.4 80 52.8 80 80 C33.23310367 80 33.23310367 80 16.51171875 64.57421875 C-1.15767326 46.17430924 0 25.35562898 0 0 Z " fill="#FBE0D4" transform="translate(168,312)"/>
<path d="M0 0 C3.96 0 7.92 0 12 0 C12 7.26 12 14.52 12 22 C20.58 22 29.16 22 38 22 C38 14.74 38 7.48 38 0 C41.96 0 45.92 0 50 0 C50 19.47 50 38.94 50 59 C46.04 59 42.08 59 38 59 C38 50.09 38 41.18 38 32 C29.42 32 20.84 32 12 32 C12 40.91 12 49.82 12 59 C8.04 59 4.08 59 0 59 C0 39.53 0 20.06 0 0 Z " fill="#FE3737" transform="translate(188,318)"/>
<path d="M0 0 C12.21 0 24.42 0 37 0 C37 3.3 37 6.6 37 10 C28.42 10 19.84 10 11 10 C11 15.28 11 20.56 11 26 C18.59 26 26.18 26 34 26 C34 28.97 34 31.94 34 35 C26.41 35 18.82 35 11 35 C11 42.92 11 50.84 11 59 C7.37 59 3.74 59 0 59 C0 39.53 0 20.06 0 0 Z " fill="#FE3232" transform="translate(197,228)"/>
<path d="M0 0 C3.96 0 7.92 0 12 0 C12 16.17 12 32.34 12 49 C20.91 49 29.82 49 39 49 C39 52.3 39 55.6 39 59 C26.13 59 13.26 59 0 59 C0 39.53 0 20.06 0 0 Z " fill="#FE3737" transform="translate(280,228)"/>
<path d="M0 0 C6.75 -0.125 6.75 -0.125 9 1 C9.28571429 8.42857143 9.28571429 8.42857143 7 12 C7.66 12.33 8.32 12.66 9 13 C9.66 11.02 10.32 9.04 11 7 C12.98 7 14.96 7 17 7 C19.03435531 10.72965139 20 12.66905042 20 17 C19.01 17.33 18.02 17.66 17 18 C15.86454438 20.29534258 15.86454438 20.29534258 15 23 C14.33333333 24.66666667 13.66666667 26.33333333 13 28 C12.67 27.34 12.34 26.68 12 26 C11.34 26 10.68 26 10 26 C10 31.94 10 37.88 10 44 C8.68 44 7.36 44 6 44 C5.67 41.69 5.34 39.38 5 37 C4.67 38.98 4.34 40.96 4 43 C2.68 43 1.36 43 0 43 C-0.09087891 41.22882813 -0.09087891 41.22882813 -0.18359375 39.421875 C-0.26802582 37.8645723 -0.35267249 36.30728121 -0.4375 34.75 C-0.47681641 33.97269531 -0.51613281 33.19539063 -0.55664062 32.39453125 C-0.59853516 31.64042969 -0.64042969 30.88632812 -0.68359375 30.109375 C-0.72025146 29.41811523 -0.75690918 28.72685547 -0.79467773 28.01464844 C-1.00675524 25.93371671 -1.44508677 24.01427578 -2 22 C-2.99 22 -3.98 22 -5 22 C-5 20.02 -5 18.04 -5 16 C-3.02 15.01 -1.04 14.02 1 13 C0.01 10.69 -0.98 8.38 -2 6 C-3.32 6.33 -4.64 6.66 -6 7 C-5.98839844 7.67546875 -5.97679687 8.3509375 -5.96484375 9.046875 C-5.95130859 10.38492187 -5.95130859 10.38492187 -5.9375 11.75 C-5.92589844 12.63171875 -5.91429687 13.5134375 -5.90234375 14.421875 C-5.99173802 16.7818838 -6.33087179 18.74498524 -7 21 C-7.66 21 -8.32 21 -9 21 C-8.7834375 21.76183594 -8.566875 22.52367187 -8.34375 23.30859375 C-6.60503087 29.75634386 -5.66639344 35.32786876 -6 42 C-9.63 42 -13.26 42 -17 42 C-17.31620422 35.20160929 -16.12676382 28.69016016 -15 22 C-15.99 21.67 -16.98 21.34 -18 21 C-19.86987216 17.26025568 -19.30641834 12.53209172 -18.5 8.5 C-18.335 8.005 -18.17 7.51 -18 7 C-15.48916886 8.25541557 -15.12874554 9.50063488 -14 12 C-12.35 12 -10.7 12 -9 12 C-9.185625 11.05125 -9.37125 10.1025 -9.5625 9.125 C-10 6 -10 6 -9 4 C-11.64 4 -14.28 4 -17 4 C-17 3.34 -17 2.68 -17 2 C-11.72 2 -6.44 2 -1 2 C-0.67 1.34 -0.34 0.68 0 0 Z " fill="#78C7BA" transform="translate(305,322)"/>
<path d="M0 0 C0.02712153 1.916588 0.04645097 3.8332873 0.0625 5.75 C0.07410156 6.81734375 0.08570313 7.8846875 0.09765625 8.984375 C0.01510087 11.53368501 -0.25382442 13.57933591 -1 16 C-1.66 16 -2.32 16 -3 16 C-2.7834375 16.76183594 -2.566875 17.52367187 -2.34375 18.30859375 C-0.60503087 24.75634386 0.33360656 30.32786876 0 37 C-3.63 37 -7.26 37 -11 37 C-11.31620422 30.20160929 -10.12676382 23.69016016 -9 17 C-9.99 16.67 -10.98 16.34 -12 16 C-13.86987216 12.26025568 -13.30641834 7.53209172 -12.5 3.5 C-12.335 3.005 -12.17 2.51 -12 2 C-9.48916886 3.25541557 -9.12874554 4.50063488 -8 7 C-6.35 7 -4.7 7 -3 7 C-3.33 5.02 -3.66 3.04 -4 1 C-2 0 -2 0 0 0 Z " fill="#EF562C" transform="translate(299,327)"/>
<path d="M0 0 C0.99 0.495 0.99 0.495 2 1 C2 1.66 2 2.32 2 3 C3.175625 3.4640625 3.175625 3.4640625 4.375 3.9375 C7 5 7 5 9 6 C11.76931368 6.15691907 14.51734107 6.25843134 17.2890625 6.31640625 C18.51669815 6.3475779 18.51669815 6.3475779 19.76913452 6.37937927 C22.38766966 6.44484812 25.00630639 6.50374726 27.625 6.5625 C29.39844807 6.60568776 31.17188581 6.64930214 32.9453125 6.69335938 C37.29677046 6.80052676 41.64833077 6.90180169 46 7 C36.85929709 13.09380194 25.85062786 12.37465094 15.3125 12.1875 C13.82097717 12.17241445 12.32943945 12.15873294 10.83789062 12.14648438 C7.22494512 12.11381157 3.61257139 12.06224719 0 12 C0 8.04 0 4.08 0 0 Z " fill="#FACDB8" transform="translate(264,380)"/>
<path d="M0 0 C3.5 0.1875 3.5 0.1875 5.5 1.1875 C5.5 2.8375 5.5 4.4875 5.5 6.1875 C3.52 7.1775 3.52 7.1775 1.5 8.1875 C1.62375 9.4559375 1.62375 9.4559375 1.75 10.75 C1.42462977 15.22384062 -0.09932129 17.43643952 -2.5 21.1875 C-7.84965035 21.54414336 -7.84965035 21.54414336 -10.4375 20.125 C-12.16984034 16.96602644 -11.33491252 14.58678667 -10.5 11.1875 C-9.0625 9.0625 -9.0625 9.0625 -7.5 7.1875 C-6.82650839 5.52357955 -6.1590841 3.85717972 -5.5 2.1875 C-3.5 0.1875 -3.5 0.1875 0 0 Z " fill="#A1C7BE" transform="translate(279.5,358.8125)"/>
<path d="M0 0 C6.75 -0.125 6.75 -0.125 9 1 C9.29058436 5.9399341 9.21320034 9.09825673 6 13 C3.8125 13.8125 3.8125 13.8125 2 14 C-0.15377564 11.37801226 -1.40072174 9.35595828 -2 6 C-3.32 6.33 -4.64 6.66 -6 7 C-6 6.34 -6 5.68 -6 5 C-6.99 5.33 -7.98 5.66 -9 6 C-9 5.34 -9 4.68 -9 4 C-11.64 4 -14.28 4 -17 4 C-17 3.34 -17 2.68 -17 2 C-11.72 2 -6.44 2 -1 2 C-0.67 1.34 -0.34 0.68 0 0 Z " fill="#E9BC8B" transform="translate(305,322)"/>
<path d="M0 0 C1.98 0 3.96 0 6 0 C8.03435531 3.72965139 9 5.66905042 9 10 C8.01 10.33 7.02 10.66 6 11 C4.86454438 13.29534258 4.86454438 13.29534258 4 16 C3.33333333 17.66666667 2.66666667 19.33333333 2 21 C1.67 20.34 1.34 19.68 1 19 C-0.32 19 -1.64 19 -3 19 C-2.42415568 16.61435923 -1.77772405 14.33317216 -1 12 C-1.99 12 -2.98 12 -4 12 C-4 11.34 -4 10.68 -4 10 C-3.01 9.67 -2.02 9.34 -1 9 C-1.20625 8.2575 -1.4125 7.515 -1.625 6.75 C-2.04408751 3.67669159 -1.61949011 2.57213134 0 0 Z " fill="#E6BC84" transform="translate(316,329)"/>
<path d="M0 0 C0.05423638 1.91635217 0.09289963 3.83314925 0.125 5.75 C0.14820313 6.81734375 0.17140625 7.8846875 0.1953125 8.984375 C0.00487687 11.92470106 -0.47329896 13.52361878 -2 16 C-2 15.01 -2 14.02 -2 13 C-6.95 14.485 -6.95 14.485 -12 16 C-13.86987216 12.26025568 -13.30641834 7.53209172 -12.5 3.5 C-12.335 3.005 -12.17 2.51 -12 2 C-9.48916886 3.25541557 -9.12874554 4.50063488 -8 7 C-6.35 7 -4.7 7 -3 7 C-3.33 5.02 -3.66 3.04 -4 1 C-2 0 -2 0 0 0 Z " fill="#E5A063" transform="translate(299,327)"/>
<path d="M0 0 C3.3 0 6.6 0 10 0 C10 4.29 10 8.58 10 13 C8.68 13 7.36 13 6 13 C5.67 10.69 5.34 8.38 5 6 C4.67 7.98 4.34 9.96 4 12 C2.68 12 1.36 12 0 12 C0 8.04 0 4.08 0 0 Z " fill="#C19953" transform="translate(305,353)"/>
<path d="M0 0 C6.75 -0.125 6.75 -0.125 9 1 C8.67 1.99 8.34 2.98 8 4 C5.36 4 2.72 4 0 4 C-0.33 4.66 -0.66 5.32 -1 6 C-3.5625 6.625 -3.5625 6.625 -6 7 C-6 6.34 -6 5.68 -6 5 C-6.99 5.33 -7.98 5.66 -9 6 C-9 5.34 -9 4.68 -9 4 C-11.64 4 -14.28 4 -17 4 C-17 3.34 -17 2.68 -17 2 C-11.72 2 -6.44 2 -1 2 C-0.67 1.34 -0.34 0.68 0 0 Z " fill="#D0B084" transform="translate(305,322)"/>
<path d="M0 0 C1.32 0.66 2.64 1.32 4 2 C4.5497272 7.63470383 2.95047835 10.38987758 0 15 C-1.98 15 -3.96 15 -6 15 C-6 14.01 -6 13.02 -6 12 C-5.34 12 -4.68 12 -4 12 C-2.33510818 8.07561214 -1.12795963 4.10899581 0 0 Z " fill="#679D8F" transform="translate(277,365)"/>
<path d="M0 0 C3.5 0.1875 3.5 0.1875 5.5 1.1875 C5.625 3.5625 5.625 3.5625 5.5 6.1875 C4.84 6.8475 4.18 7.5075 3.5 8.1875 C1.1171875 7.9453125 1.1171875 7.9453125 -1.625 7.3125 C-2.99011719 7.00699219 -2.99011719 7.00699219 -4.3828125 6.6953125 C-5.08148438 6.52773438 -5.78015625 6.36015625 -6.5 6.1875 C-5.60842439 1.72962196 -4.85151897 0.2599028 0 0 Z " fill="#EDB336" transform="translate(279.5,358.8125)"/>
<path d="M0 0 C2.12472576 -0.05386629 4.24983652 -0.09273071 6.375 -0.125 C7.55835938 -0.14820313 8.74171875 -0.17140625 9.9609375 -0.1953125 C13 0 13 0 15 2 C14.625 4.625 14.625 4.625 14 7 C9.48780488 7.36585366 9.48780488 7.36585366 7.25 5.6875 C6 4 6 4 5 1 C4.67 2.32 4.34 3.64 4 5 C4 4.34 4 3.68 4 3 C2.35 2.67 0.7 2.34 -1 2 C-0.67 1.34 -0.34 0.68 0 0 Z " fill="#E8B27B" transform="translate(282,328)"/>
<path d="M0 0 C2.97 0 5.94 0 9 0 C7.68 0.33 6.36 0.66 5 1 C4.91892417 2.93681161 4.86077525 4.8745934 4.8125 6.8125 C4.77769531 7.89144531 4.74289062 8.97039062 4.70703125 10.08203125 C4.72502467 13.35795468 4.72502467 13.35795468 8 16 C5.03 16 2.06 16 -1 16 C-1 15.01 -1 14.02 -1 13 C-0.34 13 0.32 13 1 13 C0.98839844 12.30132812 0.97679687 11.60265625 0.96484375 10.8828125 C0.95582031 9.97273438 0.94679688 9.06265625 0.9375 8.125 C0.92589844 7.22007812 0.91429687 6.31515625 0.90234375 5.3828125 C1 3 1 3 2 1 C1.34 0.67 0.68 0.34 0 0 Z " fill="#F3BA8B" transform="translate(289,364)"/>
<path d="M0 0 C0.66 1.32 1.32 2.64 2 4 C0.68 4 -0.64 4 -2 4 C-2 4.66 -2 5.32 -2 6 C-1.01 6 -0.02 6 1 6 C0.67 7.32 0.34 8.64 0 10 C-2.31 10 -4.62 10 -7 10 C-6.814375 9.2575 -6.62875 8.515 -6.4375 7.75 C-6.00796892 5.05009037 -6.14877026 3.55368923 -7 1 C-4 0 -4 0 0 0 Z " fill="#77C2B5" transform="translate(314,335)"/>
<path d="M0 0 C2 5.625 2 5.625 2 9 C1.195625 9.20625 0.39125 9.4125 -0.4375 9.625 C-1.283125 10.07875 -2.12875 10.5325 -3 11 C-3.89830839 14.05272465 -3.89830839 14.05272465 -4 17 C-4.33 17 -4.66 17 -5 17 C-5 12.05 -5 7.1 -5 2 C-1 0 -1 0 0 0 Z " fill="#EBEFEB" transform="translate(304,327)"/>
<path d="M0 0 C0.33 0 0.66 0 1 0 C1 1.65 1 3.3 1 5 C1.99 5 2.98 5 4 5 C4 9.62 4 14.24 4 19 C3.34 19 2.68 19 2 19 C1.67 16.03 1.34 13.06 1 10 C0.34 10 -0.32 10 -1 10 C-1.33 8.02 -1.66 6.04 -2 4 C-1.34 4 -0.68 4 0 4 C0 2.68 0 1.36 0 0 Z " fill="#F4C69A" transform="translate(298,339)"/>
<path d="M0 0 C0.66 0.33 1.32 0.66 2 1 C-3.61 6.61 -9.22 12.22 -15 18 C-15.66 17.67 -16.32 17.34 -17 17 C-15.29657414 15.09955869 -13.58752883 13.20471126 -11.875 11.3125 C-11.400625 10.78205078 -10.92625 10.25160156 -10.4375 9.70507812 C-7.18500869 6.12294242 -3.77952775 3.02250068 0 0 Z " fill="#4A4A4A" transform="translate(51,166)"/>
<path d="M0 0 C1.1653125 -0.00257813 2.330625 -0.00515625 3.53125 -0.0078125 C6.5 0.125 6.5 0.125 8.5 1.125 C8.5 1.785 8.5 2.445 8.5 3.125 C3.22 3.125 -2.06 3.125 -7.5 3.125 C-7.83 2.465 -8.16 1.805 -8.5 1.125 C-5.64804778 -0.30097611 -3.17538825 -0.0070252 0 0 Z " fill="#A7D0CE" transform="translate(310.5,377.875)"/>
<path d="M0 0 C1.98 0 3.96 0 6 0 C6.99 1.98 7.98 3.96 9 6 C7.39125 5.7215625 7.39125 5.7215625 5.75 5.4375 C2.59608454 5.0695432 0.90181508 4.95534657 -2 6 C-1.34 4.02 -0.68 2.04 0 0 Z " fill="#E67A39" transform="translate(316,329)"/>
<path d="M0 0 C1.32 0.33 2.64 0.66 4 1 C3.25 7.75 3.25 7.75 1 10 C0.01 9.67 -0.98 9.34 -2 9 C-2 5.61976483 -1.12544378 3.16531063 0 0 Z " fill="#F1BD84" transform="translate(310,325)"/>
<path d="M0 0 C1.65 0 3.3 0 5 0 C4.34 3.63 3.68 7.26 3 11 C1.68 10.67 0.36 10.34 -1 10 C-0.67 6.7 -0.34 3.4 0 0 Z " fill="#BD8F3F" transform="translate(306,354)"/>
<path d="M0 0 C1.32 0 2.64 0 4 0 C4 1.32 4 2.64 4 4 C5.32 4 6.64 4 8 4 C7.34 6.31 6.68 8.62 6 11 C5.67 10.34 5.34 9.68 5 9 C3.68 9 2.36 9 1 9 C1.57584432 6.61435923 2.22227595 4.33317216 3 2 C2.01 2 1.02 2 0 2 C0 1.34 0 0.68 0 0 Z " fill="#CAC38E" transform="translate(312,339)"/>
<path d="M0 0 C0.66 0.99 1.32 1.98 2 3 C1.67 3.66 1.34 4.32 1 5 C0.7724985 6.87056791 0.59037189 8.74685958 0.4375 10.625 C0.31181641 12.12933594 0.31181641 12.12933594 0.18359375 13.6640625 C0.12300781 14.43492187 0.06242187 15.20578125 0 16 C-1.65 16 -3.3 16 -5 16 C-5 15.34 -5 14.68 -5 14 C-4.01 14 -3.02 14 -2 14 C-2.02320313 13.32453125 -2.04640625 12.6490625 -2.0703125 11.953125 C-2.08835937 11.06109375 -2.10640625 10.1690625 -2.125 9.25 C-2.14820313 8.36828125 -2.17140625 7.4865625 -2.1953125 6.578125 C-1.99139502 3.8864142 -1.36551721 2.30095026 0 0 Z " fill="#E7BA8E" transform="translate(286,341)"/>
<path d="M0 0 C0.33 0 0.66 0 1 0 C2.32286246 4.96073422 2.08893197 9.91111512 2 15 C0.515625 13.8515625 0.515625 13.8515625 -1 12 C-1.328125 9.3359375 -1.328125 9.3359375 -1.25 6.375 C-1.23453125 5.39273437 -1.2190625 4.41046875 -1.203125 3.3984375 C-1 1 -1 1 0 0 Z " fill="#EBF0EE" transform="translate(303,343)"/>
<path d="M0 0 C0 3.63 0 7.26 0 11 C-1.65 10.67 -3.3 10.34 -5 10 C-5 9.34 -5 8.68 -5 8 C-4.34 7.67 -3.68 7.34 -3 7 C-3.33 5.02 -3.66 3.04 -4 1 C-2 0 -2 0 0 0 Z " fill="#8C5F3B" transform="translate(299,327)"/>
<path d="M0 0 C-0.33 1.98 -0.66 3.96 -1 6 C-2.65 6 -4.3 6 -6 6 C-6.33 4.35 -6.66 2.7 -7 1 C-4.50935112 0.31292445 -2.62113708 0 0 0 Z " fill="#E85226" transform="translate(297,340)"/>
<path d="M0 0 C6.75 -0.125 6.75 -0.125 9 1 C8.67 1.99 8.34 2.98 8 4 C5.36 4 2.72 4 0 4 C-0.33 4.66 -0.66 5.32 -1 6 C-0.67 4.02 -0.34 2.04 0 0 Z " fill="#C2884E" transform="translate(305,322)"/>
<path d="M0 0 C0.99 0 1.98 0 3 0 C3.33 3.96 3.66 7.92 4 12 C3.01 12 2.02 12 1 12 C0.67 8.04 0.34 4.08 0 0 Z " fill="#F6CD9C" transform="translate(312,366)"/>
<path d="M0 0 C2.64 0 5.28 0 8 0 C7.67 1.32 7.34 2.64 7 4 C4.69 4 2.38 4 0 4 C0 2.68 0 1.36 0 0 Z " fill="#78AAA6" transform="translate(307,341)"/>
<path d="M0 0 C2 1 2 1 3.125 4.0625 C3.41375 5.031875 3.7025 6.00125 4 7 C2.35 8.32 0.7 9.64 -1 11 C-1.14285714 3.57142857 -1.14285714 3.57142857 0 0 Z " fill="#734624" transform="translate(287,329)"/>
<path d="M0 0 C0.33 0 0.66 0 1 0 C1 1.65 1 3.3 1 5 C2.65 5.33 4.3 5.66 6 6 C6 6.33 6 6.66 6 7 C3.03 7 0.06 7 -3 7 C-3 6.01 -3 5.02 -3 4 C-2.34 4 -1.68 4 -1 4 C-0.67 2.68 -0.34 1.36 0 0 Z " fill="#E0A079" transform="translate(291,373)"/>
<path d="M0 0 C2 2 2 2 2.125 5.125 C2.08375 6.07375 2.0425 7.0225 2 8 C0.68 8 -0.64 8 -2 8 C-1.125 2.25 -1.125 2.25 0 0 Z " fill="#F7D9B8" transform="translate(289,369)"/>
<path d="M0 0 C1.98 0 3.96 0 6 0 C6 0.66 6 1.32 6 2 C5.34 2 4.68 2 4 2 C4 2.66 4 3.32 4 4 C2.02 4 0.04 4 -2 4 C-1.34 2.68 -0.68 1.36 0 0 Z " fill="#F7C80D" transform="translate(275,360)"/>
<path d="M0 0 C1.32 0 2.64 0 4 0 C4 1.98 4 3.96 4 6 C2.35 5.67 0.7 5.34 -1 5 C-0.67 3.35 -0.34 1.7 0 0 Z " fill="#F5CB1D" transform="translate(317,338)"/>
<path d="M0 0 C0.78890625 0.12761719 1.5778125 0.25523437 2.390625 0.38671875 C3.18984375 0.50660156 3.9890625 0.62648438 4.8125 0.75 C5.41578125 0.85699219 6.0190625 0.96398437 6.640625 1.07421875 C6.640625 1.73421875 6.640625 2.39421875 6.640625 3.07421875 C2.350625 3.07421875 -1.939375 3.07421875 -6.359375 3.07421875 C-2.359375 0.07421875 -2.359375 0.07421875 0 0 Z " fill="#F9E3B8" transform="translate(289.359375,324.92578125)"/>
<path d="M0 0 C0.99 0.33 1.98 0.66 3 1 C3 2.65 3 4.3 3 6 C2.34 6 1.68 6 1 6 C0.67 6.66 0.34 7.32 0 8 C-0.98120464 4.94736336 -0.98120464 3.05263664 0 0 Z " fill="#ABC7B0" transform="translate(270,371)"/>
<path d="M0 0 C1.32 0.33 2.64 0.66 4 1 C4 1.99 4 2.98 4 4 C2.68 3.67 1.36 3.34 0 3 C-0.33 4.98 -0.66 6.96 -1 9 C-2.0326802 6.21176345 -2.04509293 5.1322726 -1.0625 2.25 C-0.711875 1.5075 -0.36125 0.765 0 0 Z " fill="#B2D2CA" transform="translate(270,368)"/>
<path d="M0 0 C2.31 0 4.62 0 7 0 C6.01 0.495 6.01 0.495 5 1 C4.34786708 3.02463255 4.34786708 3.02463255 4 5 C4 4.34 4 3.68 4 3 C2.35 2.67 0.7 2.34 -1 2 C-0.67 1.34 -0.34 0.68 0 0 Z " fill="#D7B482" transform="translate(282,328)"/>
<path d="M0 0 C1.32 0 2.64 0 4 0 C3.34 2.31 2.68 4.62 2 7 C1.67 6.34 1.34 5.68 1 5 C0.01 4.67 -0.98 4.34 -2 4 C-1.34 4 -0.68 4 0 4 C0 2.68 0 1.36 0 0 Z " fill="#DF8B54" transform="translate(316,343)"/>
<path d="M0 0 C0.66 0.33 1.32 0.66 2 1 C1.67 2.32 1.34 3.64 1 5 C-0.65 4.67 -2.3 4.34 -4 4 C-3.67 3.01 -3.34 2.02 -3 1 C-2.01 0.67 -1.02 0.34 0 0 Z " fill="#E4AD72" transform="translate(308,325)"/>
<path d="M0 0 C0.33 0.66 0.66 1.32 1 2 C-1.64 2 -4.28 2 -7 2 C-7 1.34 -7 0.68 -7 0 C-4.30234372 -1.34882814 -2.84835666 -0.80338265 0 0 Z " fill="#F2DCB4" transform="translate(296,322)"/>
<path d="M0 0 C0.66 0.66 1.32 1.32 2 2 C4.20250992 2.46006346 4.20250992 2.46006346 6.625 2.625 C7.44226563 2.69976562 8.25953125 2.77453125 9.1015625 2.8515625 C9.72804688 2.90054687 10.35453125 2.94953125 11 3 C11 3.33 11 3.66 11 4 C9.20866022 4.05391993 7.41686101 4.09275571 5.625 4.125 C4.62726563 4.14820313 3.62953125 4.17140625 2.6015625 4.1953125 C0 4 0 4 -2 2 C-1.34 2 -0.68 2 0 2 C0 1.34 0 0.68 0 0 Z " fill="#DFD6D6" transform="translate(286,377)"/>
<path d="M0 0 C1.98 0 3.96 0 6 0 C6.66 1.32 7.32 2.64 8 4 C6.68 4.33 5.36 4.66 4 5 C4 3.68 4 2.36 4 1 C2.68 0.67 1.36 0.34 0 0 Z " fill="#F5C68E" transform="translate(289,328)"/>
</svg>
